# xmcd
#
# Track frame offsets: 
#        150
#        15077
#        27791
#        43250
#        60472
#        80244
#        99236
#        117605
#        136604
#        150188
#        167170
#        183117
#
# Disc length: 2702 seconds
#
# Revision: 0
# Processed by: cddbd v1.5.2PL0 Copyright (c) Steve Scherf et al.
# Submitted via: ExactAudioCopy v0.99pb4
#
DISCID=850a8c0c
DTITLE=Ina Müller - Die Schallplatte - nied opleggt
DYEAR=2009
DGENRE=Folk/Rock
TTITLE0=11 - De Klock is dree
TTITLE1=12 - Dörp Reggae (Lemon Tree)
TTITLE2=13 - Mama
TTITLE3=14 - Lockiget Hoor (Knocking' On Heaven's Door)
TTITLE4=15 - Ness in Wind
TTITLE5=16 - Blots de Necht (Love's Divine)
TTITLE6=17 - Buten Kluten (What's up)
TTITLE7=18 - Min Jehann
TTITLE8=19 - Dat weer Mai (I Belive I Can Fly)
TTITLE9=20 - Veel to old (Fields of Gold)
TTITLE10=21 - De Wind vun Hamburg (I've Never Been To Me)
TTITLE11=22 - Schnee fallt bald (Les Feuilles Mortes)
EXTD=
EXTT0=
EXTT1=
EXTT2=
EXTT3=
EXTT4=
EXTT5=
EXTT6=
EXTT7=
EXTT8=
EXTT9=
EXTT10=
EXTT11=
PLAYORDER=
